<svg xmlns="http://www.w3.org/2000/svg" viewBox="48 40 510 133" width="510" height="133"><g transform="translate(44.166,36.166) scale(0.78336)"><rect x="10" y="10" width="160" height="160" rx="28" fill="#B4432F"/><path fill-rule="evenodd" fill="#F3F5F7" d="M 44,26 L 136,26 Q 154,26 154,44 L 154,126 L 126,154 L 44,154 Q 26,154 26,136 L 26,44 Q 26,26 44,26 Z M 59,47 L 121,47 Q 133,47 133,59 L 133,117 L 117,133 L 59,133 Q 47,133 47,121 L 47,59 Q 47,47 59,47 Z"/><circle cx="21" cy="21" r="6.5" fill="#F3F5F7"/></g>
<path d="M658 552H972L1086 410L1278 192L1530 -110H1173L997 96L874 268ZM787 -21Q584 -21 419.5 67.5Q255 156 159.0 326.5Q63 497 63 744Q63 993 159.0 1164.0Q255 1335 419.5 1423.0Q584 1511 787 1511Q990 1511 1154.0 1423.0Q1318 1335 1414.5 1164.0Q1511 993 1511 744Q1511 496 1414.5 325.5Q1318 155 1154.0 67.0Q990 -21 787 -21ZM787 333Q888 333 956.0 380.5Q1024 428 1059.0 520.0Q1094 612 1094 744Q1094 877 1059.0 969.5Q1024 1062 956.0 1109.5Q888 1157 787 1157Q688 1157 619.5 1109.5Q551 1062 515.5 969.5Q480 877 480 744Q480 612 515.5 520.0Q551 428 619.5 380.5Q688 333 787 333Z" transform="translate(209.925,131.305) scale(0.05859,-0.05859)" fill="#F3F5F7"/>
<path d="M92 0V1490H529L886 905Q927 837 966.0 763.5Q1005 690 1043.5 602.0Q1082 514 1120 405L1081 379Q1076 460 1069.5 566.0Q1063 672 1058.0 774.0Q1053 876 1053 944V1490H1469V0H1033L700 544Q650 627 607.0 706.5Q564 786 522.0 877.0Q480 968 429 1082L480 1087Q488 982 494.5 878.5Q501 775 504.5 688.0Q508 601 508 544V0Z" transform="translate(299.785,131.305) scale(0.05859,-0.05859)" fill="#F3F5F7"/>
<path d="M702 -19Q506 -19 361.5 39.0Q217 97 138.5 216.0Q60 335 59 518H445Q449 452 480.0 405.5Q511 359 566.5 335.5Q622 312 699 312Q764 312 809.0 328.0Q854 344 878.0 372.5Q902 401 902 439Q902 473 879.5 499.0Q857 525 806.5 546.0Q756 567 673 583L524 614Q322 656 208.5 759.5Q95 863 95 1036Q95 1178 172.0 1285.0Q249 1392 385.0 1451.5Q521 1511 699 1511Q881 1511 1013.0 1451.0Q1145 1391 1217.0 1281.0Q1289 1171 1291 1023H904Q899 1097 848.0 1138.5Q797 1180 700 1180Q639 1180 598.0 1165.0Q557 1150 536.5 1123.5Q516 1097 516 1063Q516 1027 537.0 1001.0Q558 975 604.0 956.0Q650 937 721 922L843 897Q967 871 1056.5 829.5Q1146 788 1203.0 731.5Q1260 675 1286.5 603.5Q1313 532 1313 446Q1313 297 1240.0 193.0Q1167 89 1030.5 35.0Q894 -19 702 -19Z" transform="translate(387.828,131.305) scale(0.05859,-0.05859)" fill="#F3F5F7"/>
<path d="M783 -21Q579 -21 416.0 67.5Q253 156 158.0 326.5Q63 497 63 744Q63 993 159.0 1164.0Q255 1335 418.5 1423.0Q582 1511 783 1511Q923 1511 1041.0 1472.5Q1159 1434 1248.0 1361.0Q1337 1288 1392.5 1182.0Q1448 1076 1462 942H1050Q1044 991 1023.5 1030.5Q1003 1070 970.5 1098.5Q938 1127 893.5 1142.0Q849 1157 794 1157Q693 1157 622.5 1108.0Q552 1059 516.0 966.5Q480 874 480 744Q480 609 517.0 517.5Q554 426 623.5 379.5Q693 333 792 333Q848 333 892.0 348.0Q936 363 969.0 391.5Q1002 420 1023.0 459.5Q1044 499 1052 548H1464Q1455 444 1407.0 343.5Q1359 243 1273.0 160.5Q1187 78 1064.5 28.5Q942 -21 783 -21Z" transform="translate(464.797,131.305) scale(0.05859,-0.05859)" fill="#F3F5F7"/>
<path d="M653 -26Q490 -26 369.5 28.5Q249 83 182.0 180.5Q115 278 108 410H300Q306 321 354.0 261.5Q402 202 480.5 172.5Q559 143 653 143Q756 143 836.5 176.0Q917 209 963.5 268.5Q1010 328 1010 407Q1010 477 972.0 522.5Q934 568 867.5 598.0Q801 628 715 651L538 700Q347 752 247.0 846.5Q147 941 147 1090Q147 1217 214.0 1311.5Q281 1406 397.0 1458.5Q513 1511 659 1511Q808 1511 921.5 1458.0Q1035 1405 1100.0 1312.0Q1165 1219 1169 1100H985Q973 1216 882.0 1280.0Q791 1344 653 1344Q557 1344 484.0 1312.0Q411 1280 370.5 1225.0Q330 1170 330 1099Q330 1026 374.5 979.5Q419 933 485.5 905.0Q552 877 618 859L771 818Q842 800 916.0 769.5Q990 739 1053.0 692.0Q1116 645 1155.0 575.0Q1194 505 1194 407Q1194 283 1129.5 185.0Q1065 87 944.0 30.5Q823 -26 653 -26Z" transform="translate(209.925,169.337) scale(0.01172,-0.01172)" fill="#B7BDC7"/>
<path d="M173 0V1490H1094V1324H361V838H1043V671H361V166H1101V0Z" transform="translate(236.185,169.337) scale(0.01172,-0.01172)" fill="#B7BDC7"/>
<path d="M173 0V1490H437L807 545Q820 512 836.5 463.0Q853 414 872.0 358.0Q891 302 908.0 247.0Q925 192 937 147H895Q908 190 925.0 244.0Q942 298 960.5 354.5Q979 411 996.5 461.5Q1014 512 1027 545L1391 1490H1656V0H1471V854Q1471 900 1471.5 958.5Q1472 1017 1473.5 1080.0Q1475 1143 1476.5 1208.5Q1478 1274 1479 1335H1497Q1476 1266 1452.0 1196.0Q1428 1126 1406.0 1061.0Q1384 996 1364.5 943.0Q1345 890 1331 854L995 0H834L493 854Q479 889 460.5 941.0Q442 993 419.5 1057.0Q397 1121 372.5 1192.0Q348 1263 323 1335H344Q346 1279 347.5 1215.5Q349 1152 350.0 1087.5Q351 1023 352.0 963.0Q353 903 353 854V0Z" transform="translate(261.495,169.337) scale(0.01172,-0.01172)" fill="#B7BDC7"/>
<path d="M361 1490V0H173V1490Z" transform="translate(293.931,169.337) scale(0.01172,-0.01172)" fill="#B7BDC7"/>
<path d="M782 -21Q588 -21 437.0 73.0Q286 167 200.5 339.0Q115 511 115 744Q115 979 200.5 1150.5Q286 1322 437.0 1416.5Q588 1511 782 1511Q896 1511 997.0 1477.5Q1098 1444 1178.5 1380.0Q1259 1316 1312.5 1225.0Q1366 1134 1386 1018H1197Q1181 1096 1142.5 1155.0Q1104 1214 1048.0 1255.0Q992 1296 924.5 1316.5Q857 1337 782 1337Q643 1337 533.5 1267.0Q424 1197 361.5 1064.5Q299 932 299 744Q299 557 362.0 424.5Q425 292 534.5 222.5Q644 153 782 153Q857 153 924.5 174.0Q992 195 1047.5 235.5Q1103 276 1142.0 335.0Q1181 394 1198 471H1386Q1367 357 1313.0 266.5Q1259 176 1179.0 111.5Q1099 47 998.0 13.0Q897 -21 782 -21Z" transform="translate(311.191,169.337) scale(0.01172,-0.01172)" fill="#B7BDC7"/>
<path d="M780 -21Q588 -21 437.5 73.0Q287 167 201.0 339.0Q115 511 115 744Q115 978 201.0 1150.0Q287 1322 437.5 1416.5Q588 1511 780 1511Q973 1511 1122.5 1416.5Q1272 1322 1358.0 1150.0Q1444 978 1444 744Q1444 511 1358.0 339.0Q1272 167 1122.5 73.0Q973 -21 780 -21ZM780 153Q914 153 1022.5 221.0Q1131 289 1195.5 421.0Q1260 553 1260 744Q1260 936 1195.5 1068.5Q1131 1201 1022.5 1269.0Q914 1337 780 1337Q646 1337 537.0 1268.5Q428 1200 363.5 1068.0Q299 936 299 744Q299 553 363.5 421.5Q428 290 537.0 221.5Q646 153 780 153Z" transform="translate(339.677,169.337) scale(0.01172,-0.01172)" fill="#B7BDC7"/>
<path d="M173 0V1490H393L1001 533Q1024 498 1057.0 441.5Q1090 385 1128.5 315.0Q1167 245 1204 167L1179 159Q1172 238 1168.5 315.0Q1165 392 1164.0 457.5Q1163 523 1163 565V1490H1350V0H1128L587 851Q553 905 515.5 967.0Q478 1029 429.5 1114.0Q381 1199 313 1319L345 1330Q350 1218 353.5 1124.5Q357 1031 359.0 962.0Q361 893 361 853V0Z" transform="translate(368.949,169.337) scale(0.01172,-0.01172)" fill="#B7BDC7"/>
<path d="M637 0H277V166H625Q807 166 927.0 236.0Q1047 306 1106.0 436.5Q1165 567 1165 748Q1165 927 1106.5 1056.0Q1048 1185 932.5 1254.5Q817 1324 643 1324H269V1490H656Q874 1490 1028.5 1401.0Q1183 1312 1265.5 1145.5Q1348 979 1348 748Q1348 515 1265.0 347.5Q1182 180 1023.0 90.0Q864 0 637 0ZM361 1490V0H173V1490Z" transform="translate(397.799,169.337) scale(0.01172,-0.01172)" fill="#B7BDC7"/>
<path d="M753 -24Q578 -24 446.5 45.0Q315 114 243.0 234.0Q171 354 171 507V1490H359V522Q359 414 406.5 330.0Q454 246 542.5 198.0Q631 150 754 150Q876 150 964.0 198.5Q1052 247 1099.0 330.5Q1146 414 1146 522V1490H1334V507Q1334 354 1262.0 234.0Q1190 114 1059.5 45.0Q929 -24 753 -24Z" transform="translate(425.945,169.337) scale(0.01172,-0.01172)" fill="#B7BDC7"/>
<path d="M782 -21Q588 -21 437.0 73.0Q286 167 200.5 339.0Q115 511 115 744Q115 979 200.5 1150.5Q286 1322 437.0 1416.5Q588 1511 782 1511Q896 1511 997.0 1477.5Q1098 1444 1178.5 1380.0Q1259 1316 1312.5 1225.0Q1366 1134 1386 1018H1197Q1181 1096 1142.5 1155.0Q1104 1214 1048.0 1255.0Q992 1296 924.5 1316.5Q857 1337 782 1337Q643 1337 533.5 1267.0Q424 1197 361.5 1064.5Q299 932 299 744Q299 557 362.0 424.5Q425 292 534.5 222.5Q644 153 782 153Q857 153 924.5 174.0Q992 195 1047.5 235.5Q1103 276 1142.0 335.0Q1181 394 1198 471H1386Q1367 357 1313.0 266.5Q1259 176 1179.0 111.5Q1099 47 998.0 13.0Q897 -21 782 -21Z" transform="translate(454.584,169.337) scale(0.01172,-0.01172)" fill="#B7BDC7"/>
<path d="M87 1324V1490H1219V1324H748V0H560V1324Z" transform="translate(483.070,169.337) scale(0.01172,-0.01172)" fill="#B7BDC7"/>
<path d="M780 -21Q588 -21 437.5 73.0Q287 167 201.0 339.0Q115 511 115 744Q115 978 201.0 1150.0Q287 1322 437.5 1416.5Q588 1511 780 1511Q973 1511 1122.5 1416.5Q1272 1322 1358.0 1150.0Q1444 978 1444 744Q1444 511 1358.0 339.0Q1272 167 1122.5 73.0Q973 -21 780 -21ZM780 153Q914 153 1022.5 221.0Q1131 289 1195.5 421.0Q1260 553 1260 744Q1260 936 1195.5 1068.5Q1131 1201 1022.5 1269.0Q914 1337 780 1337Q646 1337 537.0 1268.5Q428 1200 363.5 1068.0Q299 936 299 744Q299 553 363.5 421.5Q428 290 537.0 221.5Q646 153 780 153Z" transform="translate(509.377,169.337) scale(0.01172,-0.01172)" fill="#B7BDC7"/>
<path d="M173 0V1490H692Q862 1490 975.0 1431.5Q1088 1373 1144.0 1269.5Q1200 1166 1200 1032Q1200 897 1143.0 795.0Q1086 693 973.0 636.5Q860 580 690 580H278V747H685Q800 747 872.0 781.5Q944 816 978.5 880.0Q1013 944 1013 1032Q1013 1121 978.5 1186.5Q944 1252 871.5 1288.5Q799 1325 683 1325H361V0ZM1031 0 671 671H883L1249 0Z" transform="translate(538.649,169.337) scale(0.01172,-0.01172)" fill="#B7BDC7"/></svg>
