<svg xmlns="http://www.w3.org/2000/svg" viewBox="0 0 200.00 200.00" width="200.00" height="200.00"><rect width="200" height="200" rx="40" fill="#0B1020"/><g transform="translate(15.625,15.625) scale(0.93750)"><rect x="10" y="10" width="160" height="160" rx="28" fill="#B4432F"/><path fill-rule="evenodd" fill="#F3F5F7" d="M 44,26 L 136,26 Q 154,26 154,44 L 154,126 L 126,154 L 44,154 Q 26,154 26,136 L 26,44 Q 26,26 44,26 Z M 59,47 L 121,47 Q 133,47 133,59 L 133,117 L 117,133 L 59,133 Q 47,133 47,121 L 47,59 Q 47,47 59,47 Z"/><circle cx="21" cy="21" r="6.5" fill="#F3F5F7"/></g></svg>
